<svg width="254" height="269" viewBox="0 0 254 269" fill="none" xmlns="http://www.w3.org/2000/svg">
<path d="M248 56.5C248 56.5 227 29 210 60C221 91.5 220.5 200.5 220.5 220C220.5 239.5 226.686 249.086 238 250.5C250 252 254 255.5 254 261C254 266.5 250.6 269 243 269H11C3.4 269 0 266.5 0 261C0 255.5 4 252 16 250.5C27.3137 249.086 33.5 239.5 33.5 220C33.5 200.5 33 91.5 44 60C36 48.5 16.0647 48 12 65.5C17.5 17 53.8 24.6 63 29C70.5 19.5 99.5 10 128 10C156.5 10 183.5 19.5 191 29C234.5 6.5 248 56.5 248 56.5Z" fill="url(#paint0_linear_2150_86)"/>
<circle cx="87.5" cy="65.5" r="11.5" fill="#19372D" style="fill:#19372D;fill:color(display-p3 0.0980 0.2157 0.1765);fill-opacity:1;"/>
<circle cx="159.5" cy="65.5" r="11.5" fill="#19372D" style="fill:#19372D;fill:color(display-p3 0.0980 0.2157 0.1765);fill-opacity:1;"/>
<path d="M81.1152 124.171L89.8442 108.712C85.5897 108.636 80.4545 110.117 78.4187 110.867L81.1152 124.171Z" fill="#F1DBC6" style="fill:#F1DBC6;fill:color(display-p3 0.9451 0.8588 0.7765);fill-opacity:1;"/>
<path d="M165.818 124.115L158.433 108.154C162.64 108.419 167.593 110.291 169.543 111.194L165.818 124.115Z" fill="#F1DBC6" style="fill:#F1DBC6;fill:color(display-p3 0.9451 0.8588 0.7765);fill-opacity:1;"/>
<path d="M171 109C167.805 108.775 163.184 108.573 157.4 108.411C148.232 108.153 136.697 108.008 124.722 108C112.746 107.993 101.056 108.123 91.6028 108.369C86.0071 108.515 81.3961 108.696 78 108.9" stroke="#19372D" style="stroke:#19372D;stroke:color(display-p3 0.0980 0.2157 0.1765);stroke-opacity:1;" stroke-width="6" stroke-linecap="round"/>
<rect x="65" y="43" width="123" height="23" fill="#6FBAAE" style="fill:#6FBAAE;fill:color(display-p3 0.4353 0.7294 0.6824);fill-opacity:1;"/>
<defs>
<linearGradient id="paint0_linear_2150_86" x1="127" y1="10" x2="127" y2="269" gradientUnits="userSpaceOnUse">
<stop offset="0.173077" stop-color="#6FBAAE" style="stop-color:#6FBAAE;stop-color:color(display-p3 0.4353 0.7294 0.6824);stop-opacity:1;"/>
<stop offset="0.605769" stop-color="#6EB8AC" style="stop-color:#6EB8AC;stop-color:color(display-p3 0.4298 0.7202 0.6737);stop-opacity:1;"/>
<stop offset="1" stop-color="#5E9E94" style="stop-color:#5E9E94;stop-color:color(display-p3 0.3699 0.6198 0.5798);stop-opacity:1;"/>
</linearGradient>
</defs>
</svg>
